<?xml version="1.0" standalone="no"?>
<!DOCTYPE svg PUBLIC "-//W3C//DTD SVG 20010904//EN"
 "http://www.w3.org/TR/2001/REC-SVG-20010904/DTD/svg10.dtd">
<svg version="1.0" xmlns="http://www.w3.org/2000/svg"
 width="512.000000pt" height="512.000000pt" viewBox="0 0 512.000000 512.000000"
 preserveAspectRatio="xMidYMid meet">
<metadata>
Created by potrace 1.14, written by Peter Selinger 2001-2017
</metadata>
<g transform="translate(0.000000,512.000000) scale(0.100000,-0.100000)"
fill="#000000" stroke="none">
<path d="M2235 4449 c-125 -25 -125 -25 -210 -49 -492 -138 -934 -508 -1170
-980 -25 -49 -45 -91 -45 -94 0 -4 -9 -25 -19 -49 -51 -112 -103 -312 -125
-477 -13 -104 -14 -376 -1 -470 10 -77 45 -243 62 -298 16 -50 16 -54 -4 -92
-24 -49 -22 -99 6 -138 18 -26 39 -38 92 -55 9 -3 27 -27 42 -54 167 -319 425
-597 707 -762 253 -148 469 -224 760 -267 87 -13 370 -12 465 2 148 21 152 21
257 49 208 54 393 139 589 271 80 53 136 84 153 84 33 0 76 41 76 71 0 14 30
53 79 104 226 235 389 533 471 855 17 68 25 108 46 235 9 60 12 331 4 405 -16
139 -22 185 -26 191 -2 4 -6 22 -9 40 -3 19 -14 61 -24 94 l-18 60 1 -95 c1
-258 -53 -486 -167 -712 -127 -251 -307 -452 -537 -601 -468 -301 -1058 -327
-1555 -67 -89 47 -90 48 -96 90 -6 45 -43 89 -77 91 -30 2 -57 -2 -66 -11 -23
-22 -223 187 -322 336 -108 162 -201 386 -230 554 -3 14 -7 32 -9 40 -18 65
-25 304 -13 412 64 566 408 1038 918 1259 61 26 111 53 90 48 -3 -1 -45 -9
-95 -20z m-1257 -1438 c8 -4 12 -19 10 -32 -4 -30 -46 -39 -65 -14 -25 35 18
70 55 46z m-71 -1054 c31 -29 36 -40 37 -80 0 -40 -5 -52 -30 -77 -54 -55
-146 -44 -179 20 -41 79 13 168 103 170 23 0 43 -9 69 -33z m1089 -161 c50
-42 30 -125 -33 -141 -59 -15 -111 36 -99 97 12 63 83 87 132 44z m1859 -626
c5 -21 2 -39 -9 -55 -34 -52 -126 -24 -126 39 0 30 26 64 53 68 36 6 75 -18
82 -52z m-1329 -245 c37 -24 37 -93 0 -117 -21 -14 -66 -8 -86 12 -57 57 19
149 86 105z"/>
<path d="M2497 3358 c-25 -18 -30 -58 -10 -80 21 -23 65 -23 85 0 29 32 2 92
-42 92 -9 0 -24 -6 -33 -12z"/>
<path d="M4000 3345 c-241 -49 -448 -186 -657 -436 -80 -97 -117 -131 -205
-190 -101 -69 -285 -139 -408 -155 -25 -3 -47 -8 -50 -9 -13 -8 -174 -19 -270
-18 -98 0 -225 8 -288 19 -98 17 -144 26 -192 40 -30 8 -65 17 -78 20 -53 11
-201 76 -259 114 l-31 21 9 -43 c31 -143 120 -337 214 -466 256 -355 663 -558
1095 -547 69 2 136 6 150 9 14 2 43 7 65 11 268 39 573 217 769 449 149 176
268 438 292 643 3 26 8 51 10 55 6 9 6 265 0 298 -3 14 -10 54 -16 88 -17 97
-25 112 -57 111 -16 0 -57 -7 -93 -14z m-448 -502 c37 -33 7 -113 -43 -113
-27 0 -69 39 -69 66 0 53 72 84 112 47z m-264 -492 c31 -32 35 -50 20 -98 -20
-66 -102 -86 -152 -37 -14 15 -26 29 -27 33 0 3 -2 15 -4 26 -5 27 22 80 48
93 42 20 84 14 115 -17z m-814 -92 c32 -47 -32 -102 -74 -64 -22 20 -25 37
-10 66 15 26 64 25 84 -2z"/>
<path d="M2869 2999 c-38 -41 -38 -81 0 -120 52 -51 130 -32 150 38 16 56 -27
112 -87 113 -25 0 -41 -8 -63 -31z"/>
<path d="M2160 2902 c-36 -12 -41 -59 -7 -71 29 -11 57 4 57 32 0 25 -27 46
-50 39z"/>
</g>
</svg>
